<?xml version="1.0" encoding="UTF-8" standalone="no"?>
<!-- Created with Inkscape (http://www.inkscape.org/) -->

<svg
   width="214.13362mm"
   height="92.250099mm"
   viewBox="0 0 214.13362 92.250099"
   version="1.1"
   id="svg1"
   xml:space="preserve"
   inkscape:version="1.4.2 (f4327f4, 2025-05-13)"
   sodipodi:docname="spotty-bg.svg"
   preserveAspectRatio="none"
   xmlns:inkscape="http://www.inkscape.org/namespaces/inkscape"
   xmlns:sodipodi="http://sodipodi.sourceforge.net/DTD/sodipodi-0.dtd"
   xmlns="http://www.w3.org/2000/svg"
   xmlns:svg="http://www.w3.org/2000/svg"><sodipodi:namedview
     id="namedview1"
     pagecolor="#505050"
     bordercolor="#eeeeee"
     borderopacity="1"
     inkscape:showpageshadow="0"
     inkscape:pageopacity="0"
     inkscape:pagecheckerboard="0"
     inkscape:deskcolor="#505050"
     inkscape:document-units="mm"
     inkscape:zoom="0.72604517"
     inkscape:cx="382.89629"
     inkscape:cy="165.96763"
     inkscape:window-width="1920"
     inkscape:window-height="1017"
     inkscape:window-x="-8"
     inkscape:window-y="1112"
     inkscape:window-maximized="1"
     inkscape:current-layer="layer2" /><defs
     id="defs1"><inkscape:path-effect
       effect="bspline"
       id="path-effect11"
       is_visible="true"
       lpeversion="1.3"
       weight="33.333333"
       steps="2"
       helper_size="0"
       apply_no_weight="true"
       apply_with_weight="true"
       only_selected="false"
       uniform="false" /><inkscape:path-effect
       effect="bspline"
       id="path-effect10"
       is_visible="true"
       lpeversion="1.3"
       weight="33.333333"
       steps="2"
       helper_size="0"
       apply_no_weight="true"
       apply_with_weight="true"
       only_selected="false"
       uniform="false" /><inkscape:path-effect
       effect="bspline"
       id="path-effect9"
       is_visible="true"
       lpeversion="1.3"
       weight="33.333333"
       steps="2"
       helper_size="0"
       apply_no_weight="true"
       apply_with_weight="true"
       only_selected="false"
       uniform="false" /><inkscape:path-effect
       effect="bspline"
       id="path-effect8"
       is_visible="true"
       lpeversion="1.3"
       weight="33.333333"
       steps="2"
       helper_size="0"
       apply_no_weight="true"
       apply_with_weight="true"
       only_selected="false"
       uniform="false" /><inkscape:path-effect
       effect="spiro"
       id="path-effect7"
       is_visible="true"
       lpeversion="1" /><inkscape:path-effect
       effect="spiro"
       id="path-effect6"
       is_visible="true"
       lpeversion="1" /><inkscape:path-effect
       effect="spiro"
       id="path-effect5"
       is_visible="true"
       lpeversion="1" /><inkscape:path-effect
       effect="spiro"
       id="path-effect4"
       is_visible="true"
       lpeversion="1" /></defs><g
     inkscape:groupmode="layer"
     id="layer2"
     inkscape:label="Layer 2"
     style="display:inline"
     transform="translate(1.803773,-118.53365)"><rect
       style="fill:#5e3827;fill-opacity:1;fill-rule:evenodd;stroke-width:1.5;stroke-linecap:round;stroke-linejoin:round"
       id="rect1"
       width="214.13362"
       height="92.250099"
       x="-1.803773"
       y="118.53365" /><path
       style="fill:#35241f;fill-opacity:1;fill-rule:evenodd;stroke-width:1.5;stroke-linecap:round;stroke-linejoin:round"
       d="m -1.5460911,140.95197 c 12.5950061,1.44474 24.7683001,6.40422 34.7870501,14.1725 4.038973,3.13171 7.757178,6.73903 10.599833,10.98641 2.842656,4.24738 4.786,9.16639 5.11876,14.26641 0.325355,4.98654 -1.010387,10.22523 -4.380592,13.91483 -3.082918,3.37509 -7.574069,5.17892 -12.083474,5.92782 -4.509406,0.7489 -9.113654,0.54624 -13.684711,0.51422 -6.883653,-0.0482 -13.7700369,0.2961 -20.614548,1.03073"
       id="path4"
       inkscape:path-effect="#path-effect4"
       inkscape:original-d="m -1.5460911,140.95197 c 11.8533651,4.55238 24.2220941,6.52794 34.7870501,14.1725 10.482129,7.58463 10.822638,17.35058 15.718593,25.25282 4.895956,7.90225 -3.006288,9.10476 -4.380592,13.91483 -1.374301,4.81006 -17.007001,4.1229 -25.768185,6.44204 -8.761183,2.31914 -13.7430318,0.85894 -20.614548,1.03073"
       sodipodi:nodetypes="cssssc" /><path
       style="fill:#35241f;fill-opacity:1;fill-rule:evenodd;stroke-width:1.5;stroke-linecap:round;stroke-linejoin:round"
       d="m -1.803773,118.14713 c 15.122705,-1.17486 30.645747,4.4655 41.486777,15.07439 1.12453,1.10045 2.222959,2.2845 2.833706,3.73451 0.305374,0.72501 0.481797,1.51062 0.456606,2.29691 -0.02519,0.78629 -0.25813,1.57289 -0.713492,2.2144 -0.363881,0.51263 -0.862144,0.92366 -1.418149,1.21703 -0.556005,0.29336 -1.168811,0.47141 -1.791275,0.55939 -1.24493,0.17595 -2.51124,-0.004 -3.747985,-0.23033 -7.095096,-1.29898 -13.827433,-4.12027 -20.872231,-5.669 -5.3183998,-1.1692 -10.7977113,-1.60407 -16.233957,-1.28841"
       id="path5"
       inkscape:path-effect="#path-effect5"
       inkscape:original-d="m -1.803773,118.14713 c 11.6386302,6.18437 27.657853,12.23989 41.486777,15.07439 13.828927,2.8345 1.631987,6.18436 2.57682,8.24582 0.944835,2.06145 -4.98185,0.68715 -6.957409,1.54609 -1.975562,0.85893 -13.657139,-4.46649 -20.872231,-5.669 -7.2150921,-1.20252 -10.8226381,-0.68716 -16.233957,-1.28841"
       sodipodi:nodetypes="cssccc"
       transform="translate(0,3.3498642)" /><path
       style="fill:#35241f;fill-opacity:1;fill-rule:evenodd;stroke-width:1.5;stroke-linecap:round;stroke-linejoin:round"
       d="m 212.32984,174.19293 c -19.13162,2.26611 -38.931,-1.47478 -55.91696,-10.56496 -5.08521,-2.72139 -9.94513,-5.92657 -14.13426,-9.89097 -4.18913,-3.9644 -7.69961,-8.71377 -9.83015,-14.07344 -2.71754,-6.83636 -3.08636,-14.58162 -1.03072,-21.64527 l 80.9121,0.51536 z"
       id="path6"
       inkscape:path-effect="#path-effect6"
       inkscape:original-d="m 212.32984,174.19293 c 0,0 -48.53008,-2.57682 -55.91696,-10.56496 -7.38688,-7.98813 -23.62083,-16.92111 -23.96441,-23.96441 -0.34357,-7.0433 -1.03072,-21.64527 -1.03072,-21.64527 0,0 80.9121,0.51536 80.9121,0.51536 z" /><path
       style="fill:#35241f;fill-opacity:1;fill-rule:evenodd;stroke-width:1.5;stroke-linecap:round;stroke-linejoin:round"
       d="m 212.32985,196.86894 c -6.0402,1.97692 -12.62873,2.24768 -18.81078,0.77304 -2.15188,-0.5133 -4.28204,-1.24697 -6.11279,-2.4889 -1.83076,-1.24192 -3.35014,-3.03593 -3.94502,-5.1667 -0.3774,-1.35178 -0.37213,-2.79928 -0.0535,-4.1661 0.31866,-1.36683 0.94492,-2.65374 1.76674,-3.79145 1.64363,-2.2754 4.02558,-3.92163 6.53254,-5.18422 6.31005,-3.17796 13.71402,-4.12996 20.62277,-2.65168"
       id="path7"
       inkscape:path-effect="#path-effect7"
       inkscape:original-d="m 212.32985,196.86894 c -5.75489,1.3743 -12.54052,-0.34358 -18.81078,0.77304 -6.27025,1.11662 -6.53615,-4.99288 -10.05781,-7.6556 -3.52165,-2.66271 5.58584,-7.92719 8.24581,-13.14177 2.65997,-5.21458 13.74852,-1.93957 20.62277,-2.65168"
       sodipodi:nodetypes="csssc" /><path
       style="fill:#35241f;fill-opacity:1;fill-rule:evenodd;stroke-width:1.5;stroke-linecap:round;stroke-linejoin:round"
       d="m 148.82199,182.48886 c 3.03681,-0.48589 8.3816,-0.0607 12.45095,0.0304 4.06935,0.0911 6.86316,-0.15184 9.01931,1.15402 2.15615,1.30585 3.67453,4.1604 3.09751,6.62023 -0.57702,2.45984 -3.24936,4.52483 -7.28838,4.9196 -4.03901,0.39477 -9.44442,-0.88066 -13.30119,-2.73314 -3.85677,-1.85247 -6.1647,-4.28187 -6.95426,-6.19507 -0.78957,-1.91321 -0.0608,-3.31012 2.97606,-3.79601 z"
       id="path8"
       inkscape:path-effect="#path-effect8"
       inkscape:original-d="m 146.51402,181.57782 c 5.34478,0.42515 10.68957,0.85031 16.03435,1.27546 2.79392,-0.24295 5.58773,-0.48589 8.3816,-0.72883 1.51843,2.85465 3.03681,5.7092 4.55521,8.5638 -2.67244,2.06507 -5.34478,4.13006 -8.01718,6.19509 -5.40563,-1.27548 -10.81104,-2.55092 -16.21656,-3.82638 -2.30802,-2.42949 -4.61595,-4.85889 -6.92393,-7.28834 0.72885,-1.39696 1.45767,-2.79387 2.18651,-4.1908 z"
       transform="rotate(16.082218,182.13224,205.97009)" /><path
       style="fill:#281b17;fill-opacity:1;fill-rule:evenodd;stroke-width:1.41939;stroke-linecap:round;stroke-linejoin:round"
       d="m 149.23023,118.53365 c -0.75997,30.2733 23.8414,40.90108 49.05414,43.88163 6.73172,0.79579 10.64611,0.23406 14.04548,-0.0516 l -1e-5,-43.83002 z"
       id="path9"
       sodipodi:nodetypes="ccccc" /><path
       style="fill:#281b17;fill-opacity:1;fill-rule:evenodd;stroke-width:1.5;stroke-linecap:round;stroke-linejoin:round"
       d="m 212.32984,177.93365 c -5.41836,1.09325 -10.83672,2.1865 -14.21402,4.13008 -3.37729,1.94359 -4.71346,4.7374 -3.86313,6.89355 0.85034,2.15615 3.88709,3.67453 7.26441,4.25152 3.37732,0.57699 7.09499,0.21258 10.81274,-0.15184"
       id="path10"
       inkscape:path-effect="#path-effect10"
       inkscape:original-d="m 212.32984,177.93365 c -5.41836,1.09325 -10.83672,2.1865 -16.25509,3.27975 -1.33622,2.79392 -2.67239,5.58773 -4.00859,8.3816 3.03687,1.51843 6.07362,3.03681 9.11043,4.55521 3.71783,-0.36442 7.4355,-0.72883 11.15325,-1.09325" /><path
       style="fill:#281b17;fill-opacity:1;fill-rule:evenodd;stroke-width:1.5;stroke-linecap:round;stroke-linejoin:round"
       d="m -1.803773,151.25925 c 6.9574089,2.49092 13.914821,4.98185 18.767857,8.41765 4.853036,3.4358 7.601586,7.8163 8.975889,11.8963 1.374303,4.08 1.374303,7.85926 0.558295,11.08031 -0.816008,3.22105 -2.447962,5.88371 -6.055563,7.81634 -3.607602,1.93262 -9.190596,3.13511 -13.2276376,3.69342 -4.0370413,0.55831 -6.52791591,0.47242 -9.0188404,0.38653"
       id="path11"
       inkscape:path-effect="#path-effect11"
       inkscape:original-d="m -1.803773,151.25925 c 6.95741,2.49092 13.91482,4.98185 20.87223,7.47277 2.748662,4.38068 5.497213,8.76118 8.245819,13.14177 0,3.77941 0,7.55867 0,11.33801 -1.632016,2.66276 -3.26397,5.32542 -4.895955,7.98813 -5.583218,1.20254 -11.166213,2.40503 -16.7493202,3.60755 -2.4909745,-0.0859 -4.9818492,-0.17179 -7.4727738,-0.25768" /></g></svg>
